<?xml version="1.0" encoding="UTF-8" standalone="no"?>
<svg
   width="598"
   height="440"
   viewBox="0 0 598 440"
   fill="none"
   version="1.1"
   id="svg143"
   sodipodi:docname="credenza-collection-card-background.svg"
   inkscape:version="1.2.1 (9c6d41e, 2022-07-14)"
   xmlns:inkscape="http://www.inkscape.org/namespaces/inkscape"
   xmlns:sodipodi="http://sodipodi.sourceforge.net/DTD/sodipodi-0.dtd"
   xmlns="http://www.w3.org/2000/svg"
   xmlns:svg="http://www.w3.org/2000/svg">
  <sodipodi:namedview
     id="namedview145"
     pagecolor="#ffffff"
     bordercolor="#000000"
     borderopacity="0.25"
     inkscape:showpageshadow="2"
     inkscape:pageopacity="0.0"
     inkscape:pagecheckerboard="0"
     inkscape:deskcolor="#d1d1d1"
     showgrid="false"
     inkscape:zoom="0.67181217"
     inkscape:cx="17.11788"
     inkscape:cy="126.52346"
     inkscape:window-width="1610"
     inkscape:window-height="764"
     inkscape:window-x="873"
     inkscape:window-y="205"
     inkscape:window-maximized="0"
     inkscape:current-layer="svg143" />
  <path
     d="m 64.114986,8.5079855 c 0.613,-4.059 0.919,-6.088 2.325,-7.298 1.406,-1.209999981692 3.459,-1.209999981692 7.563,-1.209999981692 H 523.99639 c 4.1047,0 6.1571,0 7.5632,1.209999981692 1.4061,1.21 1.7124,3.239 2.3249,7.298 l 63.3812,419.9998045 c 0.80629,5.3429 1.20944,8.01436 -0.28673,9.75326 -1.49618,1.7389 -4.19789,1.7389 -9.60127,1.7389 L 10.621986,440 c -5.403,0 -8.105,0 -9.601,-1.73889 -1.49599997,-1.7389 -1.09299997,-4.41036 -0.28699997,-9.75332 z"
     fill="url(#paint0_linear_317_227)"
     id="path132"
     style="fill:url(#paint0_linear_317_227)" />
  <defs
     id="defs141">
    <linearGradient
       id="paint0_linear_317_227"
       x1="299"
       y1="346.971"
       x2="299"
       y2="4.47298e-05"
       gradientUnits="userSpaceOnUse"
       gradientTransform="rotate(180,298.99999,219.99999)">
      <stop
         stop-color="#027084"
         stop-opacity="0"
         id="stop134"
         offset="0"
         style="stop-color:#dee2e3;stop-opacity:0.05;" />
      <stop
         offset="1"
         stop-color="#027084"
         id="stop138"
         style="stop-color:#dee2e3;stop-opacity:0.80000001;" />
    </linearGradient>
  </defs>
</svg>
