<svg width="598" height="440" viewBox="0 0 598 440" fill="none" xmlns="http://www.w3.org/2000/svg">
<path d="M533.885 431.492C533.272 435.551 532.966 437.58 531.56 438.79C530.154 440 528.101 440 523.997 440L74.0036 440C69.8989 440 67.8465 440 66.4404 438.79C65.0343 437.58 64.728 435.551 64.1155 431.492L0.734294 11.4922C-0.0719953 6.1493 -0.47514 3.47784 1.02103 1.73894C2.51721 3.6649e-05 5.21892 3.64128e-05 10.6223 3.59404e-05L587.378 -1.44812e-05C592.781 -1.49535e-05 595.483 -1.51897e-05 596.979 1.73888C598.475 3.47778 598.072 6.14924 597.266 11.4922L533.885 431.492Z" fill="url(#paint0_linear_317_227)"/>
<defs>
<linearGradient id="paint0_linear_317_227" x1="299" y1="346.971" x2="299" y2="4.47298e-05" gradientUnits="userSpaceOnUse">
<stop stop-color="#027084" stop-opacity="0"/>
<stop offset="0.260417" stop-color="#027084" stop-opacity="0.744792"/>
<stop offset="1" stop-color="#027084"/>
</linearGradient>
</defs>
</svg>
