<?xml version="1.0" encoding="UTF-8" standalone="no"?>
<!-- Created with Inkscape (http://www.inkscape.org/) -->

<svg
   width="79.374992mm"
   height="79.374992mm"
   viewBox="0 0 79.374992 79.374992"
   version="1.1"
   id="svg5"
   xml:space="preserve"
   inkscape:version="1.2.1 (9c6d41e, 2022-07-14)"
   sodipodi:docname="one-tree-planted-logo.svg"
   xmlns:inkscape="http://www.inkscape.org/namespaces/inkscape"
   xmlns:sodipodi="http://sodipodi.sourceforge.net/DTD/sodipodi-0.dtd"
   xmlns="http://www.w3.org/2000/svg"
   xmlns:svg="http://www.w3.org/2000/svg"><sodipodi:namedview
     id="namedview7"
     pagecolor="#ffffff"
     bordercolor="#000000"
     borderopacity="0.25"
     inkscape:showpageshadow="2"
     inkscape:pageopacity="0.0"
     inkscape:pagecheckerboard="0"
     inkscape:deskcolor="#d1d1d1"
     inkscape:document-units="mm"
     showgrid="false"
     inkscape:zoom="0.33847489"
     inkscape:cx="199.42395"
     inkscape:cy="87.155653"
     inkscape:window-width="1486"
     inkscape:window-height="711"
     inkscape:window-x="544"
     inkscape:window-y="529"
     inkscape:window-maximized="0"
     inkscape:current-layer="layer1" /><defs
     id="defs2" /><g
     inkscape:label="Layer 1"
     inkscape:groupmode="layer"
     id="layer1"
     transform="translate(-70.867974,-78.851795)"><circle
       style="fill:#5dbb47;fill-opacity:1;stroke-width:1.05833;stroke-linecap:round;stroke-linejoin:round;stroke-miterlimit:1;paint-order:stroke fill markers"
       id="path3113"
       cx="110.55547"
       cy="116.66563"
       r="35.250179" /><path
       id="path1111"
       style="fill:#ffe5c2;fill-opacity:1;fill-rule:nonzero;stroke:none;stroke-width:0.0352777"
       d="m 110.55548,78.851795 c -21.918799,0 -39.687506,17.768774 -39.687506,39.687705 0,21.91851 17.768707,39.68729 39.687506,39.68729 21.91872,0 39.68749,-17.76878 39.68749,-39.68729 0,-21.918931 -17.76877,-39.687705 -39.68749,-39.687705 z M 96.961489,96.127343 c 0,0 -0.0011,0.02954 -0.0038,0.0865 -0.0027,0.03245 -0.0055,0.07434 -0.0068,0.123367 -0.0019,0.03533 -0.0059,0.07562 -0.0075,0.121043 -0.01406,0.259576 -0.0345,0.644656 -0.05577,1.120545 -0.147599,3.104812 -0.389737,10.274252 -0.145231,14.395022 0.04204,0.70807 0.09866,1.32664 0.174805,1.81839 0,0 0.03842,0.28173 0.09654,0.79871 0.113277,1.02194 0.412216,2.9909 0.527583,5.5946 0.20456,0.1052 0.401063,0.20807 0.476989,0.20807 0.19908,0 0.804068,0.50023 0.826493,0.50023 0.199008,0 0.535794,0.2763 0.666158,0.2763 0.19872,0 0.359644,0.20108 0.359644,0.44848 0,0.0824 0.07418,0.17184 0.139,0.17184 0.13231,0 0.24936,0.0888 0.31137,0.22223 0.0644,-0.0738 0.15032,-0.11861 0.2442,-0.11861 0.19901,0 1.99354,0.9093 2.19377,0.9093 0.19865,0 0.66107,0.20723 0.85892,0.20723 0.20023,0 0.36197,0.20141 0.36197,0.45016 0,0.0894 0.25951,0.27191 0.31834,0.3231 0.059,-0.0512 0.13088,-0.0823 0.20861,-0.0823 0.16367,0 0.79381,0.24948 0.94299,0.24948 0.14918,0 0.27082,0.15069 0.27082,0.33672 0,0.0678 0.3864,0.18178 0.45079,0.18178 0.001,0 0.18727,0.0122 0.22931,0.0353 0.0428,-0.0231 0.0894,-0.0353 0.13878,-0.0353 0.16419,0 0.30357,0.13837 0.34676,0.32584 0.002,10e-4 0.004,0.002 0.006,0.003 0.0471,-0.049 0.10712,-0.0786 0.17238,-0.0786 0.1499,0 0.71527,0.1571 0.71527,0.34169 v 0.007 l -20.56082,-0.007 c -0.01138,-0.0433 0.0067,-0.0952 0.0067,-0.14418 0,-0.24947 0.674471,-0.44773 0.750974,-0.44773 0.01846,0 0.03536,0.002 0.05302,0.006 0.01651,-0.004 0.03299,-0.006 0.05102,-0.006 0.06597,0 0.427607,-0.20628 0.562226,-0.20628 0.128779,0 0.660681,-0.63162 0.861348,-0.63162 0.01644,0 0.03371,0.002 0.05102,0.006 0.01644,-0.004 0.03458,-0.006 0.05101,-0.006 0.06598,0 0.127934,0.0231 0.180931,0.0606 0.05307,-0.0375 0.114365,-0.0606 0.17998,-0.0606 0.09063,0 0.546002,-0.33451 0.895781,-0.33451 0.211626,0 0.400054,0.0691 0.519027,0.17946 0.05891,-0.1471 0.180673,-0.24948 0.322358,-0.24948 0.198287,0 0.74278,-0.14745 0.880571,-0.14745 0.199009,0 0.578265,-0.44826 0.777274,-0.44826 0.168435,0 0.450729,-0.24646 0.473081,-0.32268 0.06208,-0.22453 0.604666,-0.69013 0.791849,-0.69013 0.04124,0 0.415438,-0.57258 0.572049,-0.57258 0.0817,0 0.184561,-0.113 0.214413,-0.21748 0.03879,-0.13894 0.377215,-0.32816 0.686543,-0.45924 0.06973,-0.0291 0.136079,-0.0542 0.199098,-0.077 -0.214799,-2.59806 -0.355557,-4.67353 -0.510366,-6.80861 0,0 -0.211579,-1.89207 -0.150723,-5.35525 0.01492,-0.80324 0.0412,-1.66565 0.08598,-2.572 0.123667,-2.49842 0.35564,-5.32203 0.857342,-8.135544 0.03072,-0.173772 0.07387,-0.853717 0.380029,-1.293554 z m 19.752811,2.703186 c 1.94105,0 3.24545,1.622361 3.24545,5.902481 0,4.27939 -1.3044,5.90174 -3.24545,5.90174 -1.94084,0 -3.24587,-1.62235 -3.24587,-5.90174 0,-4.28012 1.30503,-5.902481 3.24587,-5.902481 z m -25.612725,0.154525 c 0.07762,5.73e-4 0.186239,0.006 0.317289,0.02355 0.04398,0.0065 0.08801,0.01441 0.136675,0.0245 0.04434,0.01009 0.0919,0.02239 0.139421,0.03464 0.109455,0.03317 0.224522,0.08075 0.35056,0.132662 0.143632,0.06489 0.298355,0.140653 0.455759,0.230784 0.07816,0.04615 0.158174,0.09375 0.239868,0.142062 0.0809,0.04975 0.15946,0.107349 0.241875,0.162869 0.16721,0.105993 0.322288,0.240184 0.487551,0.364919 0.153151,0.13989 0.319913,0.26963 0.464843,0.42249 l 0.222229,0.22213 c 0.06915,0.0786 0.137407,0.15639 0.205329,0.23427 0.140964,0.15069 0.253985,0.32013 0.375698,0.47371 0.113781,0.15863 0.21044,0.32161 0.309367,0.47086 0.08443,0.15719 0.164204,0.30579 0.237967,0.44351 0.06122,0.14277 0.117376,0.27252 0.1672,0.38932 0.009,0.0195 0.01651,0.0382 0.02429,0.0569 0.01341,0.0425 0.02236,0.0699 0.02662,0.0829 -0.14118,-0.0332 -0.558515,-0.14777 -1.08495,-0.42681 -0.412221,-0.21776 -0.890487,-0.53649 -1.353758,-0.99507 -0.468751,-0.46363 -0.922599,-1.06932 -1.279084,-1.859582 0,0 -0.288921,-0.519836 -0.817303,-0.626551 h 4.29e-4 c 0,0 0.01091,-3.5e-5 0.02778,-0.0015 0.02239,-0.0016 0.05778,-0.003 0.104354,-0.0026 z m 30.368775,0.0041 h 1.94102 l 2.95848,8.463606 h 0.0317 v -8.463606 h 1.24095 v 11.486296 h -1.33612 l -3.56337,-9.99016 h -0.0324 v 9.99016 h -1.24022 z m 7.97553,0 h 5.24995 v 1.050516 h -4.0091 v 3.91393 h 2.95921 v 1.04904 h -2.95921 v 4.42293 h 4.20017 v 1.04988 h -5.44102 z m -37.302237,0.193183 c 1.04667,0.07499 1.891903,0.520611 1.891903,0.520611 0.162163,0.09806 0.308967,0.197647 0.441711,0.298592 0.552754,0.41749 0.868347,0.85079 1.039956,1.25025 0.02199,0.0512 0.06479,0.20475 0.09738,0.3194 l -0.07309,0.69362 c -0.08004,-0.1406 -0.203355,-0.37918 -0.266591,-0.48301 -0.11068,-0.1507 -0.219758,-0.31371 -0.346229,-0.47234 -0.133465,-0.15214 -0.259093,-0.32083 -0.412243,-0.46865 -0.07384,-0.0757 -0.14834,-0.15215 -0.222968,-0.2293 l -0.239445,-0.21558 c -0.113493,-0.10887 -0.237094,-0.20406 -0.35996,-0.29996 -0.04283,-0.0339 -0.08566,-0.0678 -0.129282,-0.101716 -0.0019,-0.0015 -0.0038,-0.0028 -0.0067,-0.005 -0.0019,-7.15e-4 -0.0039,-0.0023 -0.0058,-0.0037 -0.05732,-0.04398 -0.114374,-0.08725 -0.172058,-0.129071 -0.162523,-0.111762 -0.325034,-0.218446 -0.490298,-0.31074 -0.03187,-0.01803 -0.06326,-0.03456 -0.09506,-0.05186 -0.0016,-7.16e-4 -0.0031,-0.0015 -0.0051,-0.0022 -0.0047,-0.0022 -0.0095,-0.005 -0.01415,-0.0079 -0.05617,-0.03028 -0.112246,-0.06058 -0.167622,-0.08798 -0.02271,-0.01154 -0.04677,-0.02448 -0.06876,-0.03602 -0.136638,-0.06922 -0.268828,-0.12625 -0.39566,-0.177445 z m 24.570657,0.698057 c -1.11329,0 -2.00481,0.954636 -2.00481,4.852596 0,3.89724 0.89152,4.85196 2.00481,4.85196 1.11329,0 2.0045,-0.95472 2.0045,-4.85196 0,-3.89796 -0.89121,-4.852596 -2.0045,-4.852596 z m -14.58303,0.153676 c 0.21222,2.5e-4 0.40268,0.0106 0.54247,0.0366 0,0 -0.011,0.003 -0.0325,0.0101 -0.0911,0.031 -0.37612,0.12898 -0.77262,0.28761 -0.67685,0.27039 -1.6791,0.72033 -2.608024,1.3188 -0.944496,0.60856 -1.812536,1.37359 -2.185532,2.26264 0.02509,-0.3288 0.213538,-1.78601 0.694043,-2.39889 0.442793,-0.58261 1.138576,-1.0981 2.22757,-1.32883 0.109163,-0.0238 0.223023,-0.0441 0.340843,-0.0614 0,0 1.03585,-0.12765 1.79378,-0.12675 z m -14.698372,7.25392 c 1.121172,-0.009 3.323293,0.50952 3.323293,0.50952 0.183362,0.0454 0.359693,0.0944 0.52885,0.1485 1.682702,0.53141 2.700172,1.4493 3.311041,2.43713 0.225399,0.36557 0.395849,0.74269 0.523041,1.11114 0.132311,0.38215 0.279145,1.56465 0.267752,2.08741 -0.452311,-1.45939 -1.767947,-2.10692 -3.164755,-3.21228 -1.374094,-1.0859 -2.887056,-1.94823 -3.912453,-2.47748 -0.601496,-0.31149 -0.896002,-0.50984 -1.035308,-0.57257 -0.03374,-0.0144 -0.05028,-0.0223 -0.05028,-0.0223 0.06416,-0.006 0.13407,-0.008 0.208815,-0.009 z m 16.677302,2.14729 c 0.0696,-3.4e-4 0.12251,0.002 0.1559,0.004 0.0255,0.002 0.042,0.002 0.042,0.002 -0.78911,0.15863 -1.22173,0.93518 -1.22173,0.93518 -0.53235,1.1818 -1.21003,2.08746 -1.91038,2.77966 -0.693,0.68514 -1.407842,1.16063 -2.02383,1.48726 -0.786371,0.41612 -1.410528,0.58733 -1.621722,0.63838 0.0063,-0.0197 0.01988,-0.0613 0.03992,-0.12368 0.01175,-0.0286 0.02245,-0.0573 0.03665,-0.0864 0.0742,-0.17392 0.158157,-0.36905 0.249585,-0.58219 0.109959,-0.20456 0.229602,-0.42712 0.355207,-0.66204 0.148463,-0.22208 0.293044,-0.4658 0.463787,-0.70302 0.180982,-0.23001 0.349775,-0.48314 0.560536,-0.70883 0.10174,-0.11609 0.204151,-0.23282 0.307044,-0.35035 l 0.332498,-0.3325 c 0.216025,-0.22857 0.465255,-0.42105 0.694045,-0.63088 0.24739,-0.1853 0.47903,-0.38648 0.72837,-0.54511 0.12286,-0.0822 0.24109,-0.16795 0.36165,-0.24293 0.12243,-0.0721 0.24177,-0.14351 0.3588,-0.21273 0.23477,-0.13411 0.46631,-0.24658 0.68147,-0.34464 0.18769,-0.0779 0.35969,-0.14791 0.52294,-0.1991 0.0715,-0.018 0.14294,-0.036 0.20892,-0.0519 0.0726,-0.0144 0.13863,-0.0259 0.20374,-0.036 0.19608,-0.0261 0.35853,-0.0337 0.47456,-0.0343 z m -1.47765,0.24843 c -0.18963,0.0771 -0.38751,0.16221 -0.59127,0.26532 -0.0334,0.018 -0.0687,0.0361 -0.10245,0.0541 -0.0833,0.0418 -0.16689,0.0866 -0.25096,0.13203 -0.007,0.004 -0.0141,0.007 -0.0211,0.0108 -0.002,0.001 -0.005,0.003 -0.007,0.004 -0.0474,0.026 -0.0946,0.0497 -0.14249,0.0771 -0.24652,0.137 -0.48997,0.29713 -0.73217,0.46442 -0.0867,0.062 -0.17193,0.12682 -0.25708,0.19244 -0.003,10e-4 -0.006,0.004 -0.009,0.006 -0.003,0.003 -0.007,0.006 -0.0102,0.008 -0.0653,0.0498 -0.12869,0.10099 -0.19308,0.15146 -0.183,0.14349 -0.368273,0.2855 -0.537936,0.44773 l -0.357319,0.32236 c -0.111474,0.11537 -0.223297,0.22996 -0.333977,0.34317 -0.22886,0.22136 -0.416168,0.47234 -0.615249,0.70091 -0.189995,0.2365 -0.352486,0.48088 -0.518182,0.70513 -0.145218,0.23939 -0.281153,0.46465 -0.407912,0.67397 -0.03728,0.0758 -0.07145,0.14607 -0.106784,0.21716 -0.03771,-0.23635 -0.0676,-0.5183 -0.08988,-0.83779 0.01875,-0.12402 0.04468,-0.25158 0.0808,-0.38425 0.03995,-0.14926 0.09425,-0.30291 0.161813,-0.46009 0.256692,-0.59847 0.728622,-1.24592 1.554652,-1.86962 0.197927,-0.1507 0.417699,-0.30071 0.65961,-0.44636 0,0 1.263664,-0.66553 2.827394,-0.77801 z m 5.15151,3.89798 h 5.79126 v 1.71784 h -1.90965 v 9.76846 h -1.97228 v -9.76846 h -1.90933 z m 6.96588,0 h 2.76835 c 2.21145,0 3.34062,0.93819 3.34062,3.38772 0,1.84602 -0.71599,2.59348 -1.38439,2.89574 l 1.67063,5.20284 h -2.0045 l -1.40023,-4.75765 c -0.25453,0.0322 -0.66777,0.0478 -1.0182,0.0478 v 4.7098 h -1.97228 z m 7.76375,0 h 5.28237 v 1.71784 h -3.30956 v 2.95921 h 2.54602 v 1.71794 h -2.54602 v 3.37231 h 3.53242 v 1.719 h -5.50523 z m 6.86797,0 h 5.28237 v 1.71784 h -3.30882 v 2.95921 h 2.54528 v 1.71794 h -2.54528 v 3.37231 h 3.53169 v 1.719 h -5.50524 z m -12.65944,1.62246 v 3.5319 h 0.70017 c 1.06571,0 1.46371,-0.39802 1.46371,-1.76664 0,-1.36796 -0.398,-1.76526 -1.46371,-1.76526 z m -29.503313,12.80932 h 2.704665 c 1.845945,0 3.055119,1.24158 3.055119,3.15018 0,1.91004 -1.209174,3.15028 -3.055119,3.15028 h -1.463605 v 5.18647 h -1.24106 z m 7.025876,0 h 1.240954 v 10.43641 h 3.722968 v 1.05052 h -4.963922 z m 8.216127,0 h 1.71848 l 2.52901,11.48693 h -1.24063 l -0.68422,-3.40473 h -2.92679 l -0.68465,3.40473 h -1.240633 z m 5.31892,0 h 1.9406 l 2.959,8.4636 h 0.0321 v -8.4636 h 1.24106 v 11.48695 h -1.33675 l -3.56369,-9.99153 h -0.0314 v 9.99153 h -1.24096 z m 7.22846,0 h 5.94938 v 1.04978 h -2.35421 v 10.43717 h -1.24022 v -10.43715 h -2.35495 z m 7.08143,0 h 5.24921 v 1.04978 h -4.00825 v 3.91395 h 2.95847 v 1.05052 h -2.95847 v 4.42218 H 127.53 v 1.05052 h -5.44028 z m 6.78432,0 h 2.13072 c 2.41838,0 3.88214,1.33754 3.88214,5.74383 0,4.4063 -1.46376,5.7431 -3.88214,5.7431 h -2.13072 z m -25.56984,0.86019 -1.27317,6.17213 h 2.57782 l -1.27317,-6.17213 z m -14.844233,0.18959 v 4.20018 h 1.304961 c 1.240556,0 1.972281,-0.66777 1.972281,-2.09976 0,-1.43127 -0.731725,-2.1004 -1.972281,-2.1004 z m 41.654293,0 v 9.38665 h 0.66837 c 1.81343,0 2.86331,-0.76288 2.86331,-4.69258 0,-3.92969 -1.04988,-4.69405 -2.86331,-4.69405 z" /></g></svg>
