<?xml version="1.0" encoding="UTF-8" standalone="no"?>
<!-- Created with Inkscape (http://www.inkscape.org/) -->

<svg
   version="1.1"
   id="svg132"
   width="479"
   height="110.89333"
   viewBox="0 0 479 110.89333"
   sodipodi:docname="OTP_H_PMS.eps"
   xmlns:inkscape="http://www.inkscape.org/namespaces/inkscape"
   xmlns:sodipodi="http://sodipodi.sourceforge.net/DTD/sodipodi-0.dtd"
   xmlns="http://www.w3.org/2000/svg"
   xmlns:svg="http://www.w3.org/2000/svg">
  <defs
     id="defs136" />
  <sodipodi:namedview
     id="namedview134"
     pagecolor="#ffffff"
     bordercolor="#000000"
     borderopacity="0.25"
     inkscape:showpageshadow="2"
     inkscape:pageopacity="0.0"
     inkscape:pagecheckerboard="0"
     inkscape:deskcolor="#d1d1d1"
     showgrid="false" />
  <g
     id="g140"
     inkscape:groupmode="layer"
     inkscape:label="Page 1"
     transform="matrix(1.3333333,0,0,-1.3333333,0,110.89333)">
    <g
       id="g142"
       transform="scale(0.1)">
      <path
         id="path144"
         style="fill:#231f20;fill-opacity:1;fill-rule:nonzero;stroke:none"
         d="m 1028.6865,575.30839 c -52.3909,0 -87.61226,-43.78288 -87.61226,-159.30176 0,-115.51589 35.22136,-159.30177 87.61226,-159.30177 52.38,0 87.5977,43.78588 87.5977,159.30177 0,115.51888 -35.2177,159.30176 -87.5977,159.30176 z m 128.3643,-4.29199 V 260.98221 h 33.501 V 530.6453 h 0.8642 l 96.167,-269.66309 h 36.0791 V 571.0164 h -33.4863 V 342.55936 h -0.8642 l -79.878,228.45704 z m 215.2735,0 V 260.98221 h 146.8798 v 28.33008 h -113.3789 v 119.38477 h 79.878 v 28.34472 h -79.878 v 105.62989 h 108.208 v 28.34473 z m 169.3798,0 v -46.37696 h 51.5186 V 260.98221 h 53.2617 v 263.65723 h 51.5332 v 46.37696 z m 187.1631,0 V 260.98221 h 53.2471 V 388.0867 c 9.44,0 20.6005,0.42207 27.4805,1.28907 l 37.7783,-128.39356 h 54.1113 l -45.0879,140.41992 c 18.03,8.164 37.3682,28.33247 37.3682,78.14942 0,66.13993 -30.5105,91.46485 -90.1904,91.46485 z m 208.6963,0 V 260.98221 h 148.5938 v 46.37695 h -95.3321 v 91.04004 h 68.7012 v 46.36231 h -68.7012 v 79.87793 h 89.3116 v 46.37696 z m 184.5264,0 V 260.98221 h 148.5938 v 46.37695 h -95.3321 v 91.04004 h 68.7012 v 46.36231 h -68.7012 v 79.87793 h 89.3115 v 46.37696 z m 183.7354,0 V 260.98221 h 33.5009 v 139.98047 h 39.5069 c 49.7999,0 82.4414,33.49659 82.4414,85.01953 0,51.53595 -32.6415,85.03419 -82.4414,85.03419 z m 189.6386,0 V 260.98221 h 133.96 v 28.33008 H 2528.9503 V 571.0164 Z m 221.7481,0 -68.2617,-310.03419 h 33.4863 l 18.457,91.88965 h 79.0283 l 18.4571,-91.88965 h 33.501 l -68.2911,310.03419 z m 143.584,0 V 260.98221 h 33.4863 V 530.6453 h 0.8643 l 96.1816,-269.66309 h 36.0791 V 571.0164 h -33.5156 V 342.55936 h -0.835 l -79.8779,228.45704 z m 195.0879,0 v -28.34473 h 63.5449 V 260.98221 h 33.501 v 281.68946 h 63.5742 v 28.34473 z m 191.1474,0 V 260.98221 h 146.8799 v 28.33008 h -113.3789 v 119.38477 h 79.8633 v 28.34472 h -79.8633 v 105.62989 h 108.1934 v 28.34473 z m 183.1055,0 V 260.98221 h 57.5684 c 65.2499,0 104.7509,36.07153 104.7509,155.02442 0,118.94488 -39.501,155.00977 -104.7509,155.00977 z m -690.1611,-23.18848 h 0.8642 l 34.336,-166.61133 h -69.5508 z m -1711.2892,-0.84961 c 30.06,0 54.0967,-25.76479 54.0967,-130.97168 0,-105.2109 -24.0367,-130.97169 -54.0967,-130.97169 -30.05892,0 -54.11128,25.76079 -54.11128,130.97169 0,105.20689 24.05236,130.97168 54.11128,130.97168 z m 1310.6397,-4.30664 h 35.1856 c 33.4999,0 53.2617,-18.03649 53.2617,-56.68946 0,-38.63996 -19.7618,-56.6748 -53.2617,-56.6748 h -35.1856 z m 1124.2969,0 h 18.0323 c 48.9699,0 77.2998,-20.61015 77.2998,-126.66504 0,-106.0629 -28.3299,-126.69434 -77.2998,-126.69434 h -18.0323 z m -1681.5088,-15.4541 h 18.8818 c 28.77,0 39.5069,-10.73306 39.5069,-47.66602 0,-36.92596 -10.7369,-47.65137 -39.5069,-47.65137 h -18.8818 z" />
      <path
         id="path172"
         style="fill:#54a235;fill-opacity:1;fill-rule:nonzero;stroke:none"
         d="M 415.83985,831.68535 C 186.54308,831.68535 0,645.14226 0,415.84549 0,186.54872 186.54308,0.00563906 415.83985,0.00563906 c 229.29677,0 415.83986,186.54308094 415.83986,415.83985094 0,229.29677 -186.54309,415.83986 -415.83986,415.83986 z m 0,-51.18164 c 201.0738,0 364.67286,-163.58442 364.67286,-364.65822 0,-130.08987 -68.51658,-244.40591 -171.31348,-308.96485 -2.08599,0.762 -3.91113,1.6531 -3.91113,2.3291 0,4.031 -2.63738,7.28028 -5.85937,7.28028 -3.231,0 -16.85163,5.40527 -20.39063,5.40527 -1.68,0 -3.22707,-0.65946 -4.49707,-1.77246 -1.273,1.113 -6.88477,5.05431 -6.88477,6.9873 0,5.371 -3.49427,9.71192 -7.82226,9.71192 -4.281,0 -14.28123,4.49707 -18.57422,4.49707 -4.324,0 -43.12665,19.6582 -47.43164,19.6582 -2.027,0 -3.89409,-0.96812 -5.28809,-2.57812 -1.34,2.89099 -3.86363,4.81933 -6.72363,4.81933 -1.406,0 -3.00293,1.92106 -3.00293,3.70606 0,5.35099 -3.48133,9.69726 -7.77832,9.69726 -2.816,0 -10.10507,5.97657 -14.41406,5.97657 -0.484,0 -13.55645,10.82519 -17.85645,10.82519 -1.649,0 -5.92245,2.22572 -10.35645,4.51172 -2.50399,56.22195 -8.91819,98.86753 -11.36718,120.9375 -1.25,11.18399 -2.08008,17.28516 -2.08008,17.28516 -1.648,10.62499 -2.8693,23.99413 -3.7793,39.28711 -5.28499,89.10191 -0.0522,244.10378 3.13477,311.22071 0.457,10.29299 0.89317,18.61152 1.20117,24.22852 0.04,0.977 0.11813,1.85307 0.16113,2.62207 0.023,1.055 0.0925,1.97402 0.14649,2.66601 0.063,1.23 0.0879,1.875 0.0879,1.875 -6.621,-9.49999 -7.54978,-24.22052 -8.21778,-27.97851 -10.83999,-60.82794 -15.86227,-121.85985 -18.53027,-175.88379 -0.973,-19.60899 -1.53635,-38.23449 -1.86035,-55.60548 -1.321,-74.88292 3.25195,-115.78125 3.25195,-115.78125 3.343,-46.16495 6.38928,-91.03021 11.03027,-147.20215 -1.35999,-0.488 -2.79199,-1.02592 -4.29199,-1.66992 -6.69499,-2.832 -14.01352,-6.92629 -14.85351,-9.94629 -0.648,-2.246 -2.86391,-4.6875 -4.62891,-4.6875 -3.391,0 -11.47228,-12.37793 -12.36328,-12.37793 -4.054,0 -15.78403,-10.06912 -17.12403,-14.91211 -0.488,-1.653 -6.58061,-6.97266 -10.22461,-6.97266 -4.30099,0 -12.50076,-9.71191 -16.80175,-9.71191 -2.977,0 -14.75398,-3.17871 -19.04297,-3.17871 -3.062,0 -5.70266,-2.20763 -6.97266,-5.39063 -2.578,2.371 -6.64271,3.86719 -11.2207,3.86719 -7.559,0 -17.40024,-7.22168 -19.36524,-7.22168 -1.41,0 -2.73783,-0.49036 -3.88183,-1.31836 -1.145,0.828 -2.49679,1.31836 -3.92579,1.31836 -0.36399,0 -0.73963,-0.0502 -1.09863,-0.11719 -0.367,0.067 -0.74363,0.11719 -1.09863,0.11719 -4.336,0 -15.84782,-13.65234 -18.63281,-13.65234 -2.032,0 -6.40701,-2.14104 -9.375,-3.45704 h -3.28125 C 120.10343,170.75564 51.181642,285.37662 51.181642,415.84549 c 0,201.0738 163.584418,364.65822 364.658208,364.65822 z M 290.30274,656.25566 c -1.55025,0.0504 -2.69534,0.005 -3.33984,-0.0439 -0.367,-0.031 -0.60059,-0.0293 -0.60059,-0.0293 11.42199,-2.30499 17.66602,-13.5498 17.66602,-13.5498 7.70699,-17.08998 17.51926,-30.17633 27.65625,-40.19532 10.01499,-9.90299 20.35759,-16.81956 29.26758,-21.51855 11.38299,-6.03499 20.39015,-8.51452 23.45215,-9.22852 -0.097,0.273 -0.27829,0.87611 -0.57129,1.78711 -0.168,0.41 -0.33635,0.80047 -0.52735,1.23047 -1.078,2.531 -2.29016,5.32886 -3.61816,8.42285 -1.594,2.969 -3.3216,6.18773 -5.1416,9.59473 -2.149,3.222 -4.22934,6.72802 -6.69434,10.16602 -2.632,3.30799 -5.07224,6.99191 -8.11523,10.2539 -1.472,1.679 -2.95048,3.36272 -4.43848,5.05371 l -4.80469,4.81934 c -3.12899,3.3 -6.73683,6.08333 -10.04883,9.11133 -3.57499,2.687 -6.92887,5.60251 -10.54687,7.89551 -1.785,1.203 -3.47949,2.44162 -5.22949,3.51562 -1.766,1.066 -3.49355,2.06817 -5.18555,3.07617 -3.406,1.953 -6.7534,3.58377 -9.8584,5.00977 -2.719,1.113 -5.20624,2.13709 -7.57324,2.87109 -1.031,0.262 -2.05258,0.50643 -3.01758,0.73242 -1.047,0.215 -2.00598,0.3877 -2.95898,0.5127 -2.2635,0.3085 -4.22124,0.46232 -5.77149,0.5127 z m 21.44531,-4.2627 c 2.742,-1.113 5.6057,-2.33124 8.55469,-3.82324 0.48,-0.246 0.99814,-0.52237 1.49414,-0.77637 1.199,-0.594 2.39917,-1.2513 3.61817,-1.9043 0.094,-0.07 0.20561,-0.12978 0.30761,-0.17578 0.043,-0.02 0.0782,-0.0396 0.11719,-0.0586 0.684,-0.363 1.35478,-0.73028 2.05078,-1.11328 3.574,-1.98 7.08383,-4.30164 10.59082,-6.72364 1.25,-0.89899 2.47871,-1.8262 3.72071,-2.7832 0.039,-0.02 0.0848,-0.0609 0.13183,-0.0879 0.055,-0.031 0.0965,-0.0489 0.14649,-0.0879 0.942,-0.723 1.8572,-1.46991 2.7832,-2.21191 2.66,-2.07 5.34397,-4.13162 7.79297,-6.47461 l 5.1709,-4.65821 c 1.614,-1.679 3.22934,-3.32582 4.81933,-4.96582 3.312,-3.19199 6.03391,-6.84772 8.9209,-10.13672 2.73,-3.42999 5.09136,-6.95461 7.48535,-10.22461 1.367,-2.23799 4.02984,-7.38369 5.75684,-10.42968 l 1.58203,15 c -0.703,2.47999 -1.63737,5.79741 -2.10937,6.89941 -3.711,8.64399 -10.52972,18.01703 -22.47071,27.04102 -2.87099,2.17599 -6.05078,4.32831 -9.55078,6.44531 0,0 -18.28411,9.621 -40.91309,11.25 z m 213.94044,-18.41309 c -16.1488,-0.189 -36.78223,-2.73925 -36.78223,-2.73925 -2.554,-0.352 -5.00816,-0.79572 -7.36816,-1.30372 -23.54298,-4.98799 -38.58208,-16.14624 -48.16407,-28.74023 -10.38299,-13.24599 -14.461,-44.76777 -15,-51.88477 8.063,19.22698 26.82724,35.78345 47.24122,48.94043 20.08598,12.94099 41.74485,22.65887 56.38183,28.50586 8.56999,3.43 14.74487,5.54959 16.71387,6.22559 0.469,0.164 0.70313,0.21973 0.70313,0.21973 -3.455,0.6445 -8.34266,0.83936 -13.72559,0.77636 z M 215.05372,476.65116 c -3.60529,0.16435 -6.87895,0.15223 -9.65332,-0.0879 0,0 0.34998,-0.1624 1.08398,-0.4834 3.012,-1.347 9.37218,-5.63629 22.36816,-12.36328 22.17598,-11.44499 54.88776,-30.12166 84.59473,-53.59864 30.19497,-23.87497 58.64587,-37.87062 68.42286,-69.43359 0.242,11.30099 -2.92314,36.87084 -5.78614,45.13184 -2.74999,7.96899 -6.4366,16.12044 -11.30859,24.02343 -13.20699,21.35498 -35.20495,41.20909 -71.58692,52.70508 -3.65699,1.16 -7.46078,2.22401 -11.42578,3.20801 0,0 -41.472,9.74799 -66.70898,10.89844 z M 568.84279,430.3035 c -2.32038,-0.0674 -5.25008,-0.26477 -8.64258,-0.71777 -1.406,-0.215 -2.82453,-0.45637 -4.39453,-0.77637 -1.426,-0.332 -2.96872,-0.73793 -4.51172,-1.12793 -3.535,-1.094 -7.2496,-2.61299 -11.30859,-4.29199 -4.652,-2.117 -9.65834,-4.53841 -14.73633,-7.44141 -2.523,-1.504 -5.11468,-3.04961 -7.76368,-4.59961 -2.60499,-1.621 -5.15562,-3.49379 -7.80761,-5.25879 -5.391,-3.42599 -10.40008,-7.78799 -15.74707,-11.79199 -4.953,-4.52399 -10.34666,-8.69935 -15.01465,-13.65234 l -7.17774,-7.16309 c -2.22599,-2.539 -4.45539,-5.07989 -6.65039,-7.58789 -4.56299,-4.875 -8.19626,-10.35862 -12.11426,-15.30762 -3.69199,-5.12499 -6.81653,-10.40808 -10.01953,-15.20508 -2.71499,-5.07799 -5.30743,-9.90852 -7.69043,-14.31152 -1.977,-4.621 -3.79527,-8.83301 -5.40527,-12.58301 -0.304,-0.632 -0.51837,-1.257 -0.77637,-1.875 -0.43,-1.355 -0.73126,-2.25966 -0.86426,-2.68066 4.562,1.105 18.04973,4.80948 35.05372,13.81347 13.31298,7.063 28.78554,17.33369 43.76953,32.13868 15.13698,14.98798 29.78596,34.55656 41.29394,60.10254 0,0 9.34916,16.78585 26.41114,20.21484 0,0 -0.35721,0.0276 -0.90821,0.0586 -0.96299,0.0585 -2.67474,0.11132 -4.99511,0.0439 z m -30.32227,-5.33203 c -33.80096,-2.442 -61.12793,-16.83106 -61.12793,-16.83106 -5.22699,-3.14499 -9.97593,-6.37667 -14.25293,-9.63867 -17.85998,-13.48798 -28.06017,-27.4997 -33.61816,-40.42969 -1.453,-3.39799 -2.62898,-6.71629 -3.50098,-9.94629 -0.785,-2.86299 -1.33217,-5.62966 -1.74317,-8.30566 0.485,-6.91399 1.13525,-13.00047 1.94825,-18.10547 0.769,1.531 1.4958,3.0655 2.2998,4.6875 2.747,4.531 5.67736,9.3992 8.81836,14.5752 3.578,4.84299 7.09306,10.13203 11.20606,15.24902 4.30099,4.93 8.35478,10.36949 13.30078,15.14649 2.398,2.44899 4.81168,4.93211 7.22168,7.41211 l 7.71972,6.9873 c 3.664,3.496 7.67387,6.57397 11.63086,9.66797 1.394,1.105 2.76781,2.1926 4.17481,3.2666 0.07,0.047 0.15373,0.11678 0.21973,0.17578 0.051,0.047 0.12042,0.10749 0.19042,0.14649 1.844,1.395 3.68441,2.80286 5.56641,4.13086 5.235,3.63299 10.48832,7.09183 15.82031,10.04882 1.036,0.586 2.06383,1.11093 3.09082,1.66993 0.059,0.019 0.11014,0.0635 0.16114,0.10254 0.152,0.079 0.3091,0.15637 0.4541,0.23437 1.824,0.984 3.61992,1.9548 5.41992,2.8418 0.735,0.383 1.49392,0.79287 2.21192,1.17187 4.40299,2.226 8.69409,4.07419 12.78808,5.74219 z" />
    </g>
  </g>
</svg>
