<?xml version="1.0" encoding="UTF-8" standalone="no"?>
<!-- Created with Inkscape (http://www.inkscape.org/) -->

<svg
   width="197.99985"
   height="226.0023"
   viewBox="0 0 52.387458 59.79644"
   version="1.1"
   id="svg5"
   sodipodi:docname="nice-credenza-tree-logo.svg"
   inkscape:version="1.2.1 (9c6d41e, 2022-07-14)"
   xml:space="preserve"
   inkscape:export-filename="nice-credenza-tree-logo.svg"
   inkscape:export-xdpi="251.94873"
   inkscape:export-ydpi="251.94873"
   xmlns:inkscape="http://www.inkscape.org/namespaces/inkscape"
   xmlns:sodipodi="http://sodipodi.sourceforge.net/DTD/sodipodi-0.dtd"
   xmlns="http://www.w3.org/2000/svg"
   xmlns:svg="http://www.w3.org/2000/svg"><sodipodi:namedview
     id="namedview7"
     pagecolor="#ffffff"
     bordercolor="#000000"
     borderopacity="0.25"
     inkscape:showpageshadow="2"
     inkscape:pageopacity="0.0"
     inkscape:pagecheckerboard="0"
     inkscape:deskcolor="#d1d1d1"
     inkscape:document-units="in"
     showgrid="true"
     showguides="true"
     inkscape:zoom="0.55336084"
     inkscape:cx="-56.021311"
     inkscape:cy="173.48535"
     inkscape:window-width="1440"
     inkscape:window-height="752"
     inkscape:window-x="430"
     inkscape:window-y="269"
     inkscape:window-maximized="0"
     inkscape:current-layer="g1499" /><defs
     id="defs2"><linearGradient
       id="linearGradient2078"
       inkscape:swatch="solid"><stop
         style="stop-color:#533440;stop-opacity:1;"
         offset="0"
         id="stop2076" /></linearGradient></defs><g
     inkscape:label="Layer 1"
     inkscape:groupmode="layer"
     id="layer1"
     transform="translate(-216.51865,-162.87951)"><g
       id="g3645"
       transform="translate(-2.8841565)"><g
         id="g1499"
         transform="translate(0.21617061,6.0527772)"><g
           id="g2941"
           transform="matrix(0.89575782,0,0,0.89405343,22.82091,16.615254)"
           style="stroke-width:1.11743"
           inkscape:export-filename="nice-credenza-tree-logo.svg"
           inkscape:export-xdpi="214.98187"
           inkscape:export-ydpi="214.98187"><path
             id="path1522-3-7-4-8-9-3-9-7-4-4-3"
             style="color:#000000;fill:#4DC786;fill-opacity:1;stroke-width:1.11743;stroke-linejoin:round;stroke-miterlimit:1;paint-order:stroke fill markers"
             d="m 248.96833,156.82673 v 0.0225 c -1.60666,3.46135 -3.99729,6.48308 -6.89068,9.22259 l 3.34568,-0.35316 -4.55419,5.82683 2.20057,-0.70863 -2.98188,4.91649 1.46609,0.88203 -5.78782,8.25675 3.20175,0.0168 -4.58446,7.48917 5.63761,-0.72771 1.0646,2.87556 5.89291,-2.26519 -0.13764,3.79227 c -3.3043,-0.005 -6.28217,-0.0201 -8.82224,-0.0254 -0.49284,-0.001 -0.97202,-0.002 -1.43868,-0.002 v 5.7e-4 c -0.46664,8e-5 -0.92042,5.1e-4 -1.36157,0.002 -5.88185,0.0212 -9.53911,0.19211 -11.94232,0.94908 -1.92261,0.60557 -3.08309,1.75433 -3.5827,3.37206 -0.49962,1.61773 -0.47575,3.62765 -0.47575,6.3401 0,2.91639 -0.012,5.10592 0.48717,6.86261 0.27611,0.97176 0.74976,1.79881 1.44495,2.46691 -0.12625,0.20837 -0.19599,0.52662 -0.24044,0.69418 l -0.84355,3.25299 c 0,0 -0.84579,3.18508 -0.84757,3.24895 -0.007,0.2622 0.23187,0.39485 0.45177,0.45315 v -5.7e-4 c 0.21811,0.0585 0.4506,-0.005 0.61053,-0.16473 l 2.71687,-2.7432 2.71287,-2.74435 c 0.0202,-0.0203 0.0386,-0.0401 0.0559,-0.059 4.22947,0.73664 11.06653,0.60575 22.65216,0.60575 11.75265,0 18.61391,0.16846 22.82064,-0.51731 l 2.68316,2.71487 2.71744,2.7432 c 0.15994,0.16052 0.39243,0.22321 0.61053,0.16473 v 5.7e-4 c 0.2199,-0.0584 0.45816,-0.19095 0.45119,-0.45315 -0.002,-0.0639 -0.84754,-3.24895 -0.84754,-3.24895 l -0.84357,-3.25299 c -0.0506,-0.23919 -0.087,-0.44691 -0.13079,-0.60921 0.60056,-0.60301 1.01795,-1.33697 1.26791,-2.19063 0.49391,-1.68689 0.47176,-3.78825 0.47176,-6.60367 0,-2.82406 0.0176,-4.92935 -0.48262,-6.61811 -0.50033,-1.6888 -1.65397,-2.90485 -3.58554,-3.5657 -3.70799,-1.26867 -10.43301,-1.08825 -23.52598,-1.07161 l 0.0634,-2.88307 3.38738,1.46986 0.90352,-2.22011 3.92766,1.87851 5.00309,-1.85886 -3.28742,-5.74244 -1.10342,-0.20462 0.6014,1.54038 0.69563,1.78313 -1.76822,-0.69707 -4.51535,-1.78371 v 3.20329 l -1.25534,-0.7699 -6.15335,-3.76279 -1.91557,1.90336 -1.59917,1.59066 0.19134,-2.25941 0.18846,-2.20912 1.61287,0.13987 0.81787,-0.81498 0.46033,-0.45604 0.5517,0.33582 5.44344,3.32871 v -2.67904 l 1.13084,0.44506 3.87798,1.53171 -0.45177,-1.15659 -0.546,-1.40281 1.46609,0.27167 4.03332,0.74793 -3.06297,-3.48882 -2.09548,1.25716 -0.5934,0.35547 -0.45461,-0.52656 -1.2662,-1.47217 0.0194,0.10866 -1.63285,0.28842 -0.52945,-3.07381 -0.51001,-2.96226 1.95155,2.27039 2.76599,3.21427 3.89453,-2.33224 c -2.18816,-1.75092 -3.50419,-3.03427 -4.40456,-4.37316 l 0.072,1.13404 0.17476,2.7773 -1.66312,-2.21779 -3.05726,-4.07087 -1.97382,4.19456 -1.22793,2.6091 -0.3404,-2.86978 -0.31069,-2.58424 1.46665,-0.17629 1.4741,-3.13277 0.58484,-1.24328 0.82357,1.09473 2.21712,2.9507 -0.0662,-1.03289 -0.0805,-1.27912 1.19481,0.44217 2.02009,0.74736 -2.31708,-3.14953 -4.95341,-2.58713 -0.79273,1.81145 -0.85612,1.96521 -0.68479,-2.03283 -0.66252,-1.95943 1.50494,-0.51789 0.33011,-0.75603 0.35467,-0.81787 0.78417,0.41154 4.37941,2.28773 1.46096,-0.49882 c -3.85123,-3.07394 -5.73242,-6.17144 -6.75476,-9.28097 z m -4.87459,41.9739 h 5.7e-4 c 0.0735,10e-6 0.14583,0.002 0.2176,0.005 0.072,0.003 0.14332,0.008 0.21361,0.015 0.0703,0.007 0.13929,0.0151 0.20789,0.0248 0.0686,0.01 0.13698,0.0204 0.2039,0.0329 0.0669,0.0125 0.13238,0.0263 0.19759,0.0416 0.0652,0.0152 0.12955,0.0314 0.19305,0.0491 0.12701,0.0354 0.25113,0.0764 0.37123,0.1208 0.1201,0.0444 0.23643,0.0926 0.34954,0.1445 0.11313,0.0519 0.22233,0.10732 0.32839,0.16531 0.10606,0.058 0.20891,0.11885 0.30785,0.18149 0.0989,0.0626 0.19384,0.12662 0.28556,0.19248 0.0918,0.0659 0.18056,0.13292 0.265,0.20056 0.0845,0.0677 0.16507,0.13604 0.24216,0.20404 0.0771,0.068 0.15023,0.13596 0.21989,0.20287 0.0697,0.0669 0.13604,0.13269 0.19819,0.1971 0.12429,0.12881 0.23287,0.25108 0.32668,0.36125 0.0937,0.11016 0.17204,0.20838 0.23473,0.28843 0.0626,-0.0799 0.14148,-0.17774 0.2353,-0.28785 0.0939,-0.1101 0.20342,-0.23246 0.32784,-0.36125 0.0622,-0.0644 0.12787,-0.13018 0.1976,-0.1971 0.0697,-0.0669 0.14327,-0.13488 0.22046,-0.20288 0.0772,-0.068 0.15818,-0.13638 0.24273,-0.20403 0.0846,-0.0677 0.17259,-0.13469 0.26444,-0.20057 0.0919,-0.0659 0.18765,-0.13039 0.28671,-0.19305 0.0991,-0.0627 0.20106,-0.12348 0.30725,-0.18149 0.1062,-0.058 0.21631,-0.11338 0.32955,-0.16531 0.11324,-0.0519 0.22991,-0.10009 0.35011,-0.1445 0.12021,-0.0444 0.24411,-0.0847 0.37123,-0.12023 0.0636,-0.0177 0.12778,-0.0345 0.19305,-0.0497 0.0652,-0.0152 0.13121,-0.029 0.19818,-0.0416 0.0669,-0.0125 0.13524,-0.0232 0.20389,-0.0329 0.0686,-0.01 0.13756,-0.0182 0.20789,-0.0248 0.0703,-0.007 0.1416,-0.0116 0.2136,-0.015 0.072,-0.003 0.14453,-0.005 0.21818,-0.005 0.0842,0 0.16815,0.002 0.25129,0.006 0.0832,0.004 0.16586,0.0107 0.24787,0.0191 0.082,0.008 0.16366,0.0187 0.24444,0.0312 0.0808,0.0125 0.16042,0.0269 0.23988,0.0434 0.0794,0.0164 0.15843,0.0352 0.23644,0.0555 0.078,0.0203 0.1554,0.0419 0.23188,0.0659 0.0764,0.024 0.15191,0.0498 0.22674,0.0774 0.0748,0.0277 0.1491,0.0572 0.22218,0.0884 0.0731,0.0312 0.14521,0.0642 0.21645,0.0988 0.0712,0.0346 0.14147,0.0713 0.21075,0.10924 0.0693,0.038 0.13725,0.0773 0.20447,0.11849 0.0672,0.0412 0.1337,0.0841 0.19875,0.12832 0.065,0.0443 0.1291,0.0902 0.19189,0.13756 0.0628,0.0473 0.12406,0.096 0.18448,0.14624 0.0604,0.0502 0.11968,0.10187 0.17761,0.1549 0.0579,0.053 0.11483,0.10784 0.17021,0.16358 0.0553,0.0557 0.10893,0.11218 0.16162,0.17051 0.0527,0.0583 0.10432,0.11835 0.15422,0.17918 0.0499,0.0608 0.0986,0.1229 0.14563,0.18611 0.047,0.0632 0.0925,0.12756 0.13651,0.19306 0.044,0.0655 0.0864,0.13173 0.12736,0.19941 0.0409,0.0677 0.0805,0.13658 0.11822,0.20634 0.0377,0.0698 0.0742,0.1404 0.10852,0.21213 0.0344,0.0717 0.0667,0.14487 0.0977,0.21848 0.031,0.0736 0.0604,0.14774 0.0879,0.22311 0.0275,0.0754 0.0533,0.15186 0.0771,0.22889 0.0239,0.077 0.046,0.15493 0.0662,0.23351 0.0202,0.0786 0.0379,0.15753 0.0542,0.23756 0.0163,0.08 0.031,0.16137 0.0434,0.24276 0.0124,0.0814 0.0226,0.16302 0.0309,0.24565 0.008,0.0826 0.0145,0.16593 0.0188,0.2497 0.004,0.0838 0.007,0.16779 0.007,0.25259 0,0.13112 -0.004,0.27321 -0.012,0.42541 -0.009,0.1522 -0.022,0.31481 -0.0417,0.48667 -0.01,0.0859 -0.0211,0.17416 -0.0342,0.26473 -0.0132,0.0906 -0.0282,0.18355 -0.0452,0.2786 -0.0169,0.0951 -0.0355,0.19196 -0.0565,0.29131 -0.021,0.0993 -0.0443,0.20115 -0.0697,0.30461 -0.0254,0.10346 -0.0532,0.20876 -0.0834,0.31616 -0.0302,0.1074 -0.0629,0.21715 -0.0982,0.32831 -0.0353,0.11117 -0.0735,0.22396 -0.11423,0.33871 -0.0409,0.11476 -0.0847,0.23095 -0.13136,0.34911 -0.0467,0.11817 -0.0962,0.23812 -0.14906,0.35952 -0.0529,0.12139 -0.10902,0.2443 -0.16849,0.36876 -0.0595,0.12445 -0.12264,0.25068 -0.18904,0.37801 -0.0664,0.12733 -0.13593,0.25608 -0.2096,0.38611 -0.0737,0.13003 -0.15114,0.26106 -0.23246,0.39362 -0.0813,0.13255 -0.16656,0.26681 -0.25587,0.40171 -0.0893,0.13491 -0.18276,0.27042 -0.28041,0.40749 -0.0977,0.13707 -0.19976,0.27536 -0.30613,0.41443 -0.10637,0.13906 -0.21697,0.27933 -0.3324,0.4202 -0.11544,0.14089 -0.23553,0.28233 -0.36039,0.42484 -0.12487,0.14253 -0.2543,0.28605 -0.38894,0.43003 -0.13464,0.14399 -0.27443,0.28883 -0.4192,0.43408 -0.14478,0.14527 -0.29478,0.29059 -0.45005,0.43697 -0.15527,0.14637 -0.31592,0.2937 -0.48204,0.44101 -0.16612,0.14731 -0.33783,0.29469 -0.51516,0.44275 -0.17733,0.14807 -0.35995,0.29642 -0.54885,0.44506 -0.18889,0.14863 -0.38403,0.29776 -0.58484,0.4468 -0.20081,0.14904 -0.40773,0.29811 -0.62082,0.44737 -0.21309,0.14926 -0.43221,0.29807 -0.65793,0.44737 -0.22573,0.1493 -0.45808,0.29935 -0.69679,0.44853 a 0.52392801,0.52922289 0 0 1 -0.002,0.002 c -0.0542,0.0336 -0.11073,0.0628 -0.16847,0.0884 -0.0577,0.0255 -0.11717,0.0475 -0.17763,0.0647 -0.0605,0.0172 -0.1215,0.0299 -0.1839,0.0387 -0.0624,0.009 -0.12549,0.0133 -0.18903,0.0133 -0.0636,0 -0.12703,-0.005 -0.18963,-0.0133 -0.0626,-0.009 -0.12433,-0.0214 -0.18504,-0.0387 -0.0607,-0.0173 -0.12086,-0.0392 -0.17876,-0.0647 -0.0579,-0.0255 -0.11371,-0.0549 -0.16792,-0.0884 a 0.52392801,0.52922289 0 0 1 -0.002,-0.002 c -0.23871,-0.14918 -0.47048,-0.29923 -0.6962,-0.44853 -0.22572,-0.1493 -0.44486,-0.29811 -0.65794,-0.44737 -0.21309,-0.14926 -0.42003,-0.29833 -0.62083,-0.44737 -0.2008,-0.14904 -0.39538,-0.29817 -0.58427,-0.4468 -0.18886,-0.14864 -0.37211,-0.29699 -0.54942,-0.44506 -0.17732,-0.14806 -0.34905,-0.29544 -0.51515,-0.44275 -0.16611,-0.14731 -0.32622,-0.29464 -0.48147,-0.44101 -0.15525,-0.14638 -0.30588,-0.2917 -0.45061,-0.43697 -0.14476,-0.14525 -0.28403,-0.29009 -0.41864,-0.43408 -0.13462,-0.14398 -0.26411,-0.2875 -0.38894,-0.43003 -0.12484,-0.14251 -0.24556,-0.28395 -0.36097,-0.42484 -0.11541,-0.14087 -0.22604,-0.28114 -0.33239,-0.4202 -0.10635,-0.13907 -0.20793,-0.27736 -0.30555,-0.41443 -0.0976,-0.13707 -0.19058,-0.27258 -0.27986,-0.40749 -0.0893,-0.1349 -0.17457,-0.26916 -0.25586,-0.40171 -0.0813,-0.13256 -0.15881,-0.26359 -0.23245,-0.39362 -0.0737,-0.13003 -0.14381,-0.25878 -0.21018,-0.38611 -0.0663,-0.12733 -0.12903,-0.25356 -0.18848,-0.37801 -0.0594,-0.12446 -0.1156,-0.24737 -0.16848,-0.36876 -0.0529,-0.1214 -0.10239,-0.24135 -0.14906,-0.35952 -0.0466,-0.11816 -0.0906,-0.23435 -0.13136,-0.34911 -0.0408,-0.11475 -0.0789,-0.22754 -0.11422,-0.33871 -0.0353,-0.11116 -0.0675,-0.22091 -0.0977,-0.32831 -0.0302,-0.1074 -0.058,-0.2127 -0.0834,-0.31616 -0.0254,-0.10346 -0.0487,-0.20527 -0.0697,-0.30461 -0.021,-0.0993 -0.0396,-0.19626 -0.0565,-0.29131 -0.0169,-0.095 -0.032,-0.18802 -0.0451,-0.2786 -0.0132,-0.0906 -0.0245,-0.1788 -0.0342,-0.26473 -0.0197,-0.17186 -0.0333,-0.33447 -0.0417,-0.48667 -0.008,-0.1522 -0.012,-0.29429 -0.012,-0.42541 0,-0.0848 0.002,-0.16882 0.007,-0.25259 0.004,-0.0838 0.0105,-0.16707 0.0188,-0.2497 0.008,-0.0826 0.0185,-0.16427 0.0308,-0.24565 0.0124,-0.0814 0.0271,-0.16272 0.0434,-0.24276 0.0163,-0.08 0.0346,-0.15897 0.0548,-0.23756 0.0202,-0.0786 0.0418,-0.15649 0.0656,-0.23351 0.0239,-0.077 0.0497,-0.15352 0.0771,-0.22889 0.0275,-0.0754 0.057,-0.14951 0.088,-0.22311 0.031,-0.0736 0.0639,-0.14674 0.0982,-0.21848 0.0344,-0.0717 0.0702,-0.14237 0.10795,-0.21213 0.0377,-0.0698 0.0773,-0.13865 0.11823,-0.20634 0.0409,-0.0677 0.0834,-0.13391 0.12736,-0.19941 0.0441,-0.0655 0.0901,-0.12984 0.13707,-0.19306 0.047,-0.0632 0.0952,-0.12529 0.14507,-0.18611 0.0499,-0.0608 0.10152,-0.12085 0.1542,-0.17918 0.0527,-0.0583 0.10684,-0.11478 0.16221,-0.17051 0.0553,-0.0557 0.11168,-0.11055 0.16962,-0.16358 0.0579,-0.053 0.11721,-0.10467 0.17763,-0.1549 0.0604,-0.0502 0.12167,-0.0989 0.18446,-0.14624 0.0628,-0.0473 0.12685,-0.0933 0.19191,-0.13756 0.065,-0.0443 0.13153,-0.0872 0.19875,-0.12832 0.0672,-0.0412 0.13519,-0.0805 0.20446,-0.11849 0.0693,-0.0379 0.13951,-0.0746 0.21075,-0.10924 0.0712,-0.0346 0.14395,-0.0676 0.21703,-0.0988 0.0731,-0.0312 0.14676,-0.0607 0.22159,-0.0884 0.0748,-0.0277 0.15027,-0.0534 0.22674,-0.0774 0.0764,-0.024 0.15387,-0.0457 0.23189,-0.0659 0.078,-0.0203 0.157,-0.0391 0.23644,-0.0555 0.0795,-0.0164 0.15966,-0.0309 0.24045,-0.0434 0.0808,-0.0125 0.16186,-0.0228 0.24387,-0.0312 0.082,-0.008 0.16473,-0.0149 0.24787,-0.0191 0.083,-0.004 0.16676,-0.006 0.25073,-0.006 z m 0,1.0589 c -0.0665,0 -0.13308,0.001 -0.19875,0.005 -0.0656,0.003 -0.13059,0.008 -0.19533,0.015 -0.0648,0.007 -0.12931,0.0145 -0.19304,0.0243 -0.0638,0.01 -0.12698,0.0213 -0.18963,0.0341 -0.0627,0.0128 -0.1247,0.0269 -0.18618,0.0428 -0.0615,0.0159 -0.12253,0.0332 -0.18275,0.052 -0.0602,0.0188 -0.11987,0.039 -0.17876,0.0607 -0.0589,0.0216 -0.11671,0.0449 -0.17421,0.0694 -0.0575,0.0244 -0.11418,0.0498 -0.1702,0.0769 -0.056,0.0271 -0.11174,0.0559 -0.16619,0.0856 -0.0545,0.0297 -0.10768,0.0603 -0.16049,0.0925 -0.0528,0.0322 -0.10484,0.0659 -0.15592,0.10057 -0.0511,0.0347 -0.10092,0.071 -0.1502,0.10809 -0.0493,0.0371 -0.0983,0.0745 -0.14564,0.11386 -0.0474,0.0393 -0.0934,0.0798 -0.13879,0.12138 -0.0454,0.0416 -0.0902,0.0847 -0.13364,0.12832 -0.0434,0.0437 -0.0855,0.0884 -0.12679,0.1341 -0.0413,0.0457 -0.082,0.0921 -0.12108,0.13987 -0.0391,0.0477 -0.0768,0.0967 -0.11365,0.14624 -0.0368,0.0496 -0.0724,0.10003 -0.1068,0.15143 -0.0344,0.0514 -0.0673,0.10351 -0.0994,0.15664 -0.032,0.0531 -0.0636,0.10765 -0.0931,0.16242 -0.0295,0.0548 -0.057,0.10954 -0.0839,0.16589 -0.0269,0.0563 -0.0529,0.11383 -0.0771,0.17166 -0.0243,0.0578 -0.047,0.11648 -0.0685,0.17572 -0.0215,0.0592 -0.0419,0.11918 -0.0605,0.17975 -0.0186,0.0606 -0.0356,0.12199 -0.0514,0.18381 -0.0157,0.0618 -0.0295,0.1237 -0.0423,0.18669 -0.0128,0.063 -0.0246,0.12667 -0.0343,0.19074 -0.01,0.0641 -0.018,0.12912 -0.0245,0.19421 -0.007,0.0651 -0.0109,0.12994 -0.0143,0.19595 -0.003,0.066 -0.005,0.13255 -0.005,0.19941 0,0.11374 0.002,0.23766 0.009,0.37107 0.006,0.13341 0.0172,0.27696 0.0332,0.42888 0.0158,0.15191 0.0368,0.31278 0.0651,0.48205 0.0142,0.0846 0.0302,0.17078 0.048,0.25953 0.0178,0.0887 0.0375,0.18009 0.0594,0.27281 0.0219,0.0927 0.0462,0.18667 0.0726,0.28322 0.0263,0.0965 0.0545,0.1957 0.0856,0.29594 0.0311,0.10023 0.0649,0.20199 0.10109,0.30576 0.0362,0.10378 0.0752,0.209 0.11709,0.31617 0.0418,0.10717 0.0865,0.21615 0.13421,0.32657 0.0477,0.11041 0.0979,0.2223 0.15193,0.33582 0.0539,0.11352 0.11123,0.22917 0.1719,0.34564 0.0607,0.11648 0.12477,0.23387 0.19247,0.35316 0.0677,0.11929 0.13962,0.24045 0.21475,0.36241 0.0751,0.12196 0.15353,0.24486 0.23644,0.36934 0.083,0.12448 0.16993,0.2506 0.26101,0.37744 0.0911,0.12686 0.18652,0.2547 0.28613,0.38379 0.0996,0.12909 0.20331,0.25897 0.31184,0.39015 0.10853,0.13118 0.22201,0.26339 0.33983,0.39651 0.11781,0.13312 0.24031,0.26679 0.3678,0.40171 0.12748,0.13491 0.25941,0.2715 0.39694,0.40807 0.13752,0.13656 0.28042,0.27346 0.42835,0.41154 0.14794,0.13807 0.30104,0.27673 0.45976,0.41616 0.15871,0.13944 0.32299,0.27956 0.49288,0.42021 0.16987,0.14065 0.34574,0.28194 0.52715,0.42367 0.18142,0.14172 0.36867,0.2845 0.562,0.42715 0.19331,0.14265 0.39235,0.28544 0.59797,0.42887 0.20559,0.14343 0.41797,0.28712 0.63624,0.43119 0.21827,0.14407 0.44263,0.28837 0.67393,0.43293 h 0.002 c 0.0261,0.016 0.054,0.0282 0.0829,0.0364 0.0289,0.008 0.0589,0.0127 0.0891,0.0127 0.0303,0 0.0594,-0.004 0.0879,-0.0127 0.0284,-0.008 0.0562,-0.0205 0.0823,-0.0364 0.23134,-0.14457 0.45563,-0.28886 0.67394,-0.43293 0.21831,-0.14408 0.43059,-0.28775 0.63623,-0.43119 0.20567,-0.14344 0.40461,-0.28622 0.59797,-0.42887 0.19338,-0.14266 0.38053,-0.28542 0.562,-0.42715 0.18145,-0.14173 0.35723,-0.28301 0.52715,-0.42367 0.16994,-0.14065 0.3347,-0.28077 0.49346,-0.42021 0.15878,-0.13944 0.31178,-0.27809 0.45976,-0.41616 0.14798,-0.13808 0.29078,-0.27555 0.42835,-0.41212 0.13757,-0.13657 0.26997,-0.27258 0.3975,-0.40749 0.12755,-0.13492 0.25051,-0.2686 0.36838,-0.40171 0.11787,-0.13312 0.2301,-0.26534 0.33868,-0.39651 0.10859,-0.13118 0.21331,-0.26164 0.31298,-0.39073 0.0997,-0.12908 0.19501,-0.25694 0.28614,-0.38379 0.0912,-0.12686 0.17747,-0.25239 0.26043,-0.37686 0.083,-0.12448 0.16242,-0.24796 0.23759,-0.36992 0.0751,-0.12195 0.14642,-0.24254 0.21418,-0.36183 0.0678,-0.11929 0.13176,-0.23668 0.19247,-0.35316 0.0607,-0.11646 0.11842,-0.23212 0.17247,-0.34564 0.054,-0.11351 0.10475,-0.22541 0.1525,-0.33582 0.0477,-0.11042 0.0924,-0.2194 0.13421,-0.32657 0.0418,-0.10716 0.0808,-0.2124 0.11708,-0.31617 0.0363,-0.10377 0.07,-0.20553 0.10109,-0.30576 0.0311,-0.10024 0.0599,-0.19939 0.0862,-0.29594 0.0263,-0.0966 0.05,-0.19049 0.072,-0.28322 0.0219,-0.0927 0.0416,-0.18406 0.0594,-0.27281 0.0178,-0.0888 0.0339,-0.1749 0.048,-0.25953 0.0283,-0.16926 0.0503,-0.33014 0.0662,-0.48205 0.0159,-0.15192 0.0261,-0.29547 0.0326,-0.42888 0.007,-0.13341 0.009,-0.25732 0.009,-0.37107 0,-0.0669 -0.002,-0.13339 -0.005,-0.19941 -0.003,-0.066 -0.008,-0.13086 -0.0149,-0.19595 -0.007,-0.0651 -0.0143,-0.13013 -0.024,-0.19421 -0.01,-0.0641 -0.0209,-0.12775 -0.0337,-0.19074 -0.0128,-0.063 -0.0271,-0.12487 -0.0429,-0.18669 -0.0158,-0.0618 -0.0328,-0.12324 -0.0514,-0.18381 -0.0186,-0.0606 -0.039,-0.1205 -0.0605,-0.17975 -0.0215,-0.0592 -0.0444,-0.11788 -0.0685,-0.17572 -0.0243,-0.0578 -0.0496,-0.11532 -0.0765,-0.17166 -0.0269,-0.0563 -0.0556,-0.11112 -0.0851,-0.16589 -0.0295,-0.0548 -0.06,-0.1093 -0.092,-0.16242 -0.032,-0.0531 -0.0655,-0.10525 -0.1,-0.15664 -0.0344,-0.0514 -0.07,-0.10184 -0.1068,-0.15143 -0.0368,-0.0496 -0.0745,-0.0985 -0.11366,-0.14624 -0.0391,-0.0477 -0.0793,-0.0941 -0.12051,-0.13987 -0.0413,-0.0457 -0.0834,-0.0905 -0.12678,-0.1341 -0.0434,-0.0437 -0.0882,-0.0868 -0.13365,-0.12832 -0.0454,-0.0416 -0.092,-0.082 -0.13935,-0.12138 -0.0474,-0.0393 -0.0958,-0.0769 -0.14507,-0.11386 -0.0493,-0.037 -0.0997,-0.0734 -0.15078,-0.10809 -0.0511,-0.0347 -0.10312,-0.0683 -0.15592,-0.10057 -0.0528,-0.0322 -0.10604,-0.0628 -0.16049,-0.0925 -0.0545,-0.0297 -0.10961,-0.0584 -0.16562,-0.0856 -0.056,-0.0271 -0.11328,-0.0525 -0.17078,-0.0769 -0.0575,-0.0244 -0.11528,-0.0477 -0.17419,-0.0694 -0.0589,-0.0216 -0.1191,-0.0419 -0.17934,-0.0607 -0.0602,-0.0188 -0.12013,-0.0361 -0.1816,-0.052 -0.0615,-0.0159 -0.12412,-0.03 -0.18677,-0.0428 -0.0627,-0.0128 -0.12587,-0.0243 -0.18961,-0.0341 -0.0638,-0.01 -0.1283,-0.0177 -0.19305,-0.0243 -0.0648,-0.007 -0.12965,-0.0117 -0.19533,-0.015 -0.0656,-0.003 -0.13165,-0.005 -0.19818,-0.005 -0.0634,0 -0.12705,0.002 -0.19019,0.007 -0.0632,0.005 -0.12573,0.0118 -0.18847,0.0208 -0.0628,0.009 -0.12565,0.0199 -0.1879,0.0329 -0.0623,0.013 -0.12396,0.0278 -0.18561,0.0445 -0.0617,0.0167 -0.12296,0.0353 -0.1839,0.0555 -0.061,0.0202 -0.12151,0.042 -0.18163,0.0653 -0.0601,0.0233 -0.11958,0.0484 -0.17876,0.0746 -0.0592,0.0262 -0.11777,0.0534 -0.1759,0.0821 -0.11628,0.0574 -0.23068,0.11975 -0.34212,0.18553 -0.11143,0.0658 -0.2204,0.13518 -0.32612,0.20693 -0.10571,0.0718 -0.20815,0.14545 -0.30726,0.2208 -0.0991,0.0753 -0.19452,0.15234 -0.28613,0.22888 -0.0916,0.0765 -0.17947,0.15297 -0.26272,0.22832 -0.0833,0.0753 -0.16244,0.14904 -0.23645,0.22079 -0.0739,0.0718 -0.14288,0.14173 -0.20675,0.2075 -0.0639,0.0658 -0.12247,0.12756 -0.17534,0.18497 -0.10573,0.11479 -0.18863,0.21047 -0.24502,0.27744 -0.0564,0.067 -0.0862,0.10519 -0.0862,0.10519 a 0.52392801,0.52922289 0 0 1 -0.18506,0.15722 0.52392801,0.52922289 0 0 1 -0.23529,0.0566 0.52392801,0.52922289 0 0 1 -0.23531,-0.0566 0.52392801,0.52922289 0 0 1 -0.18562,-0.15722 c 0,0 -0.0299,-0.0382 -0.0862,-0.10519 -0.0563,-0.067 -0.13879,-0.16265 -0.24444,-0.27744 -0.0529,-0.0574 -0.11151,-0.11919 -0.17534,-0.18497 -0.0639,-0.0658 -0.1328,-0.13574 -0.20675,-0.2075 -0.0739,-0.0718 -0.15269,-0.14545 -0.23588,-0.22079 -0.0832,-0.0753 -0.17117,-0.15179 -0.26272,-0.22832 -0.0916,-0.0765 -0.18708,-0.15354 -0.28612,-0.22888 -0.0991,-0.0754 -0.20163,-0.14904 -0.30728,-0.2208 -0.10565,-0.0718 -0.21417,-0.14116 -0.32554,-0.20693 -0.11139,-0.0658 -0.22531,-0.12813 -0.34154,-0.18553 -0.0581,-0.0287 -0.11674,-0.0559 -0.1759,-0.0821 -0.0592,-0.0262 -0.11924,-0.0513 -0.17934,-0.0746 -0.0601,-0.0233 -0.1207,-0.0451 -0.18163,-0.0653 -0.0609,-0.0202 -0.12168,-0.0388 -0.18332,-0.0555 -0.0617,-0.0167 -0.12337,-0.0315 -0.18562,-0.0445 -0.0623,-0.013 -0.12516,-0.024 -0.1879,-0.0329 -0.0628,-0.009 -0.12591,-0.0161 -0.18904,-0.0208 -0.0632,-0.005 -0.12621,-0.007 -0.18962,-0.007 z" /></g></g></g></g></svg>
